<svg viewBox="5 5 250 250" fill="none" xmlns="http://www.w3.org/2000/svg">
  <defs>
    <clipPath id="cc10">
      <circle cx="130" cy="130" r="119"/>
    </clipPath>
  </defs>

  <!-- Background fill -->
  <circle cx="130" cy="130" r="121" fill="#f0fafa"/>

  <!-- Clipped interior -->
  <g clip-path="url(#cc10)">

    <!-- Left sweep arc (broad C-curve) -->
    <path d="M 27,62 C -55,95 -55,168 27,202"
          stroke="#007a7a" stroke-width="4.5" stroke-linecap="round"/>

    <!-- Track 1 -->
    <rect x="20" y="87" width="222" height="19" rx="9.5" fill="#f0fafa" stroke="#007a7a" stroke-width="3.2"/>
    <circle cx="64"  cy="96.5" r="7.5" fill="#f0fafa" stroke="#007a7a" stroke-width="3.2"/>
    <circle cx="185" cy="96.5" r="7.5" fill="#f0fafa" stroke="#007a7a" stroke-width="3.2"/>

    <!-- Track 2 -->
    <rect x="44" y="111" width="198" height="19" rx="9.5" fill="#f0fafa" stroke="#007a7a" stroke-width="3.2"/>
    <circle cx="90"  cy="120.5" r="7.5" fill="#f0fafa" stroke="#007a7a" stroke-width="3.2"/>
    <circle cx="204" cy="120.5" r="7.5" fill="#f0fafa" stroke="#007a7a" stroke-width="3.2"/>

    <!-- Track 3 -->
    <rect x="68" y="135" width="174" height="19" rx="9.5" fill="#f0fafa" stroke="#007a7a" stroke-width="3.2"/>
    <circle cx="114" cy="144.5" r="7.5" fill="#f0fafa" stroke="#007a7a" stroke-width="3.2"/>
    <circle cx="210" cy="144.5" r="7.5" fill="#f0fafa" stroke="#007a7a" stroke-width="3.2"/>

    <!-- Track 4 -->
    <rect x="92" y="159" width="150" height="19" rx="9.5" fill="#f0fafa" stroke="#007a7a" stroke-width="3.2"/>
    <circle cx="138" cy="168.5" r="7.5" fill="#f0fafa" stroke="#007a7a" stroke-width="3.2"/>
    <circle cx="216" cy="168.5" r="7.5" fill="#f0fafa" stroke="#007a7a" stroke-width="3.2"/>

  </g>

  <!-- Outer circle (drawn on top so it's crisp) -->
  <circle cx="130" cy="130" r="121" stroke="#007a7a" stroke-width="4.5"/>
</svg>